<?xml version="1.0" encoding="utf-8" ?>
<svg xmlns="http://www.w3.org/2000/svg" xmlns:xlink="http://www.w3.org/1999/xlink" width="50" height="50">
	<clipPath id="cl_4">
		<rect width="50" height="50"/>
	</clipPath>
	<g clip-path="url(#cl_4)">
		<path fill="#F3F3F3" transform="matrix(2 0 0 -2 25 25)" d="M-4.5 12.5L-3.5 12.5L-3.5 11.5L-4.5 11.5L-4.5 12.5Z" fill-rule="evenodd"/>
		<path fill="#F3F3F3" transform="matrix(2 0 0 -2 25 25)" d="M-3.5 12.5L-2.5 12.5L-2.5 11.5L-3.5 11.5L-3.5 12.5Z" fill-rule="evenodd"/>
		<path fill="#F3F3F3" transform="matrix(2 0 0 -2 25 25)" d="M-2.5 12.5L-1.5 12.5L-1.5 11.5L-2.5 11.5L-2.5 12.5Z" fill-rule="evenodd"/>
		<path fill="#F3F3F3" transform="matrix(2 0 0 -2 25 25)" d="M-0.5 12.5L0.5 12.5L0.5 11.5L-0.5 11.5L-0.5 12.5Z" fill-rule="evenodd"/>
		<path fill="#F3F3F3" transform="matrix(2 0 0 -2 25 25)" d="M0.5 12.5L1.5 12.5L1.5 11.5L0.5 11.5L0.5 12.5Z" fill-rule="evenodd"/>
		<path fill="#F3F3F3" transform="matrix(2 0 0 -2 25 25)" d="M1.5 12.5L2.5 12.5L2.5 11.5L1.5 11.5L1.5 12.5Z" fill-rule="evenodd"/>
		<path fill="#F3F3F3" transform="matrix(2 0 0 -2 25 25)" d="M2.5 12.5L3.5 12.5L3.5 11.5L2.5 11.5L2.5 12.5Z" fill-rule="evenodd"/>
		<path fill="#F3F3F3" transform="matrix(2 0 0 -2 25 25)" d="M3.5 12.5L4.5 12.5L4.5 11.5L3.5 11.5L3.5 12.5Z" fill-rule="evenodd"/>
		<path fill="#F3F3F3" transform="matrix(2 0 0 -2 25 25)" d="M-4.5 11.5L-3.5 11.5L-3.5 10.5L-4.5 10.5L-4.5 11.5Z" fill-rule="evenodd"/>
		<path fill="#F3F3F3" transform="matrix(2 0 0 -2 25 25)" d="M-3.5 11.5L-2.5 11.5L-2.5 10.5L-3.5 10.5L-3.5 11.5Z" fill-rule="evenodd"/>
		<path fill="#F3F3F3" transform="matrix(2 0 0 -2 25 25)" d="M-2.5 11.5L-1.5 11.5L-1.5 10.5L-2.5 10.5L-2.5 11.5Z" fill-rule="evenodd"/>
		<path fill="#F3F3F3" transform="matrix(2 0 0 -2 25 25)" d="M0.5 11.5L1.5 11.5L1.5 10.5L0.5 10.5L0.5 11.5Z" fill-rule="evenodd"/>
		<path fill="#F3F3F3" transform="matrix(2 0 0 -2 25 25)" d="M-4.5 10.5L-3.5 10.5L-3.5 9.5L-4.5 9.5L-4.5 10.5Z" fill-rule="evenodd"/>
		<path fill="#F3F3F3" transform="matrix(2 0 0 -2 25 25)" d="M-2.5 10.5L-1.5 10.5L-1.5 9.5L-2.5 9.5L-2.5 10.5Z" fill-rule="evenodd"/>
		<path fill="#F3F3F3" transform="matrix(2 0 0 -2 25 25)" d="M-1.5 10.5L-0.5 10.5L-0.5 9.5L-1.5 9.5L-1.5 10.5Z" fill-rule="evenodd"/>
		<path fill="#F3F3F3" transform="matrix(2 0 0 -2 25 25)" d="M1.5 10.5L2.5 10.5L2.5 9.5L1.5 9.5L1.5 10.5Z" fill-rule="evenodd"/>
		<path fill="#F3F3F3" transform="matrix(2 0 0 -2 25 25)" d="M-4.5 9.5L-3.5 9.5L-3.5 8.5L-4.5 8.5L-4.5 9.5Z" fill-rule="evenodd"/>
		<path fill="#F3F3F3" transform="matrix(2 0 0 -2 25 25)" d="M-3.5 9.5L-2.5 9.5L-2.5 8.5L-3.5 8.5L-3.5 9.5Z" fill-rule="evenodd"/>
		<path fill="#F3F3F3" transform="matrix(2 0 0 -2 25 25)" d="M-1.5 9.5L-0.5 9.5L-0.5 8.5L-1.5 8.5L-1.5 9.5Z" fill-rule="evenodd"/>
		<path fill="#F3F3F3" transform="matrix(2 0 0 -2 25 25)" d="M0.5 9.5L1.5 9.5L1.5 8.5L0.5 8.5L0.5 9.5Z" fill-rule="evenodd"/>
		<path fill="#F3F3F3" transform="matrix(2 0 0 -2 25 25)" d="M1.5 9.5L2.5 9.5L2.5 8.5L1.5 8.5L1.5 9.5Z" fill-rule="evenodd"/>
		<path fill="#F3F3F3" transform="matrix(2 0 0 -2 25 25)" d="M3.5 9.5L4.5 9.5L4.5 8.5L3.5 8.5L3.5 9.5Z" fill-rule="evenodd"/>
		<path fill="#F3F3F3" transform="matrix(2 0 0 -2 25 25)" d="M0.5 8.5L1.5 8.5L1.5 7.5L0.5 7.5L0.5 8.5Z" fill-rule="evenodd"/>
		<path fill="#F3F3F3" transform="matrix(2 0 0 -2 25 25)" d="M2.5 8.5L3.5 8.5L3.5 7.5L2.5 7.5L2.5 8.5Z" fill-rule="evenodd"/>
		<path fill="#F3F3F3" transform="matrix(2 0 0 -2 25 25)" d="M3.5 8.5L4.5 8.5L4.5 7.5L3.5 7.5L3.5 8.5Z" fill-rule="evenodd"/>
		<path fill="#F3F3F3" transform="matrix(2 0 0 -2 25 25)" d="M-4.5 7.5L-3.5 7.5L-3.5 6.5L-4.5 6.5L-4.5 7.5Z" fill-rule="evenodd"/>
		<path fill="#F3F3F3" transform="matrix(2 0 0 -2 25 25)" d="M-1.5 7.5L-0.5 7.5L-0.5 6.5L-1.5 6.5L-1.5 7.5Z" fill-rule="evenodd"/>
		<path fill="#F3F3F3" transform="matrix(2 0 0 -2 25 25)" d="M-0.5 7.5L0.5 7.5L0.5 6.5L-0.5 6.5L-0.5 7.5Z" fill-rule="evenodd"/>
		<path fill="#F3F3F3" transform="matrix(2 0 0 -2 25 25)" d="M0.5 7.5L1.5 7.5L1.5 6.5L0.5 6.5L0.5 7.5Z" fill-rule="evenodd"/>
		<path fill="#F3F3F3" transform="matrix(2 0 0 -2 25 25)" d="M-4.5 6.5L-3.5 6.5L-3.5 5.5L-4.5 5.5L-4.5 6.5Z" fill-rule="evenodd"/>
		<path fill="#F3F3F3" transform="matrix(2 0 0 -2 25 25)" d="M-2.5 6.5L-1.5 6.5L-1.5 5.5L-2.5 5.5L-2.5 6.5Z" fill-rule="evenodd"/>
		<path fill="#F3F3F3" transform="matrix(2 0 0 -2 25 25)" d="M-0.5 6.5L0.5 6.5L0.5 5.5L-0.5 5.5L-0.5 6.5Z" fill-rule="evenodd"/>
		<path fill="#F3F3F3" transform="matrix(2 0 0 -2 25 25)" d="M1.5 6.5L2.5 6.5L2.5 5.5L1.5 5.5L1.5 6.5Z" fill-rule="evenodd"/>
		<path fill="#F3F3F3" transform="matrix(2 0 0 -2 25 25)" d="M3.5 6.5L4.5 6.5L4.5 5.5L3.5 5.5L3.5 6.5Z" fill-rule="evenodd"/>
		<path fill="#F3F3F3" transform="matrix(2 0 0 -2 25 25)" d="M-3.5 5.5L-2.5 5.5L-2.5 4.5L-3.5 4.5L-3.5 5.5Z" fill-rule="evenodd"/>
		<path fill="#F3F3F3" transform="matrix(2 0 0 -2 25 25)" d="M-0.5 5.5L0.5 5.5L0.5 4.5L-0.5 4.5L-0.5 5.5Z" fill-rule="evenodd"/>
		<path fill="#F3F3F3" transform="matrix(2 0 0 -2 25 25)" d="M-12.5 4.5L-11.5 4.5L-11.5 3.5L-12.5 3.5L-12.5 4.5Z" fill-rule="evenodd"/>
		<path fill="#F3F3F3" transform="matrix(2 0 0 -2 25 25)" d="M-11.5 4.5L-10.5 4.5L-10.5 3.5L-11.5 3.5L-11.5 4.5Z" fill-rule="evenodd"/>
		<path fill="#F3F3F3" transform="matrix(2 0 0 -2 25 25)" d="M-8.5 4.5L-7.5 4.5L-7.5 3.5L-8.5 3.5L-8.5 4.5Z" fill-rule="evenodd"/>
		<path fill="#F3F3F3" transform="matrix(2 0 0 -2 25 25)" d="M-7.5 4.5L-6.5 4.5L-6.5 3.5L-7.5 3.5L-7.5 4.5Z" fill-rule="evenodd"/>
		<path fill="#F3F3F3" transform="matrix(2 0 0 -2 25 25)" d="M-6.5 4.5L-5.5 4.5L-5.5 3.5L-6.5 3.5L-6.5 4.5Z" fill-rule="evenodd"/>
		<path fill="#F3F3F3" transform="matrix(2 0 0 -2 25 25)" d="M-1.5 4.5L-0.5 4.5L-0.5 3.5L-1.5 3.5L-1.5 4.5Z" fill-rule="evenodd"/>
		<path fill="#F3F3F3" transform="matrix(2 0 0 -2 25 25)" d="M0.5 4.5L1.5 4.5L1.5 3.5L0.5 3.5L0.5 4.5Z" fill-rule="evenodd"/>
		<path fill="#F3F3F3" transform="matrix(2 0 0 -2 25 25)" d="M1.5 4.5L2.5 4.5L2.5 3.5L1.5 3.5L1.5 4.5Z" fill-rule="evenodd"/>
		<path fill="#F3F3F3" transform="matrix(2 0 0 -2 25 25)" d="M2.5 4.5L3.5 4.5L3.5 3.5L2.5 3.5L2.5 4.5Z" fill-rule="evenodd"/>
		<path fill="#F3F3F3" transform="matrix(2 0 0 -2 25 25)" d="M6.5 4.5L7.5 4.5L7.5 3.5L6.5 3.5L6.5 4.5Z" fill-rule="evenodd"/>
		<path fill="#F3F3F3" transform="matrix(2 0 0 -2 25 25)" d="M8.5 4.5L9.5 4.5L9.5 3.5L8.5 3.5L8.5 4.5Z" fill-rule="evenodd"/>
		<path fill="#F3F3F3" transform="matrix(2 0 0 -2 25 25)" d="M9.5 4.5L10.5 4.5L10.5 3.5L9.5 3.5L9.5 4.5Z" fill-rule="evenodd"/>
		<path fill="#F3F3F3" transform="matrix(2 0 0 -2 25 25)" d="M10.5 4.5L11.5 4.5L11.5 3.5L10.5 3.5L10.5 4.5Z" fill-rule="evenodd"/>
		<path fill="#F3F3F3" transform="matrix(2 0 0 -2 25 25)" d="M11.5 4.5L12.5 4.5L12.5 3.5L11.5 3.5L11.5 4.5Z" fill-rule="evenodd"/>
		<path fill="#F3F3F3" transform="matrix(2 0 0 -2 25 25)" d="M-11.5 3.5L-10.5 3.5L-10.5 2.5L-11.5 2.5L-11.5 3.5Z" fill-rule="evenodd"/>
		<path fill="#F3F3F3" transform="matrix(2 0 0 -2 25 25)" d="M-10.5 3.5L-9.5 3.5L-9.5 2.5L-10.5 2.5L-10.5 3.5Z" fill-rule="evenodd"/>
		<path fill="#F3F3F3" transform="matrix(2 0 0 -2 25 25)" d="M-8.5 3.5L-7.5 3.5L-7.5 2.5L-8.5 2.5L-8.5 3.5Z" fill-rule="evenodd"/>
		<path fill="#F3F3F3" transform="matrix(2 0 0 -2 25 25)" d="M-7.5 3.5L-6.5 3.5L-6.5 2.5L-7.5 2.5L-7.5 3.5Z" fill-rule="evenodd"/>
		<path fill="#F3F3F3" transform="matrix(2 0 0 -2 25 25)" d="M-5.5 3.5L-4.5 3.5L-4.5 2.5L-5.5 2.5L-5.5 3.5Z" fill-rule="evenodd"/>
		<path fill="#F3F3F3" transform="matrix(2 0 0 -2 25 25)" d="M-4.5 3.5L-3.5 3.5L-3.5 2.5L-4.5 2.5L-4.5 3.5Z" fill-rule="evenodd"/>
		<path fill="#F3F3F3" transform="matrix(2 0 0 -2 25 25)" d="M-3.5 3.5L-2.5 3.5L-2.5 2.5L-3.5 2.5L-3.5 3.5Z" fill-rule="evenodd"/>
		<path fill="#F3F3F3" transform="matrix(2 0 0 -2 25 25)" d="M-2.5 3.5L-1.5 3.5L-1.5 2.5L-2.5 2.5L-2.5 3.5Z" fill-rule="evenodd"/>
		<path fill="#F3F3F3" transform="matrix(2 0 0 -2 25 25)" d="M-0.5 3.5L0.5 3.5L0.5 2.5L-0.5 2.5L-0.5 3.5Z" fill-rule="evenodd"/>
		<path fill="#F3F3F3" transform="matrix(2 0 0 -2 25 25)" d="M1.5 3.5L2.5 3.5L2.5 2.5L1.5 2.5L1.5 3.5Z" fill-rule="evenodd"/>
		<path fill="#F3F3F3" transform="matrix(2 0 0 -2 25 25)" d="M2.5 3.5L3.5 3.5L3.5 2.5L2.5 2.5L2.5 3.5Z" fill-rule="evenodd"/>
		<path fill="#F3F3F3" transform="matrix(2 0 0 -2 25 25)" d="M4.5 3.5L5.5 3.5L5.5 2.5L4.5 2.5L4.5 3.5Z" fill-rule="evenodd"/>
		<path fill="#F3F3F3" transform="matrix(2 0 0 -2 25 25)" d="M7.5 3.5L8.5 3.5L8.5 2.5L7.5 2.5L7.5 3.5Z" fill-rule="evenodd"/>
		<path fill="#F3F3F3" transform="matrix(2 0 0 -2 25 25)" d="M8.5 3.5L9.5 3.5L9.5 2.5L8.5 2.5L8.5 3.5Z" fill-rule="evenodd"/>
		<path fill="#F3F3F3" transform="matrix(2 0 0 -2 25 25)" d="M10.5 3.5L11.5 3.5L11.5 2.5L10.5 2.5L10.5 3.5Z" fill-rule="evenodd"/>
		<path fill="#F3F3F3" transform="matrix(2 0 0 -2 25 25)" d="M-12.5 2.5L-11.5 2.5L-11.5 1.5L-12.5 1.5L-12.5 2.5Z" fill-rule="evenodd"/>
		<path fill="#F3F3F3" transform="matrix(2 0 0 -2 25 25)" d="M-10.5 2.5L-9.5 2.5L-9.5 1.5L-10.5 1.5L-10.5 2.5Z" fill-rule="evenodd"/>
		<path fill="#F3F3F3" transform="matrix(2 0 0 -2 25 25)" d="M-9.5 2.5L-8.5 2.5L-8.5 1.5L-9.5 1.5L-9.5 2.5Z" fill-rule="evenodd"/>
		<path fill="#F3F3F3" transform="matrix(2 0 0 -2 25 25)" d="M-8.5 2.5L-7.5 2.5L-7.5 1.5L-8.5 1.5L-8.5 2.5Z" fill-rule="evenodd"/>
		<path fill="#F3F3F3" transform="matrix(2 0 0 -2 25 25)" d="M-7.5 2.5L-6.5 2.5L-6.5 1.5L-7.5 1.5L-7.5 2.5Z" fill-rule="evenodd"/>
		<path fill="#F3F3F3" transform="matrix(2 0 0 -2 25 25)" d="M-6.5 2.5L-5.5 2.5L-5.5 1.5L-6.5 1.5L-6.5 2.5Z" fill-rule="evenodd"/>
		<path fill="#F3F3F3" transform="matrix(2 0 0 -2 25 25)" d="M-1.5 2.5L-0.5 2.5L-0.5 1.5L-1.5 1.5L-1.5 2.5Z" fill-rule="evenodd"/>
		<path fill="#F3F3F3" transform="matrix(2 0 0 -2 25 25)" d="M-0.5 2.5L0.5 2.5L0.5 1.5L-0.5 1.5L-0.5 2.5Z" fill-rule="evenodd"/>
		<path fill="#F3F3F3" transform="matrix(2 0 0 -2 25 25)" d="M0.5 2.5L1.5 2.5L1.5 1.5L0.5 1.5L0.5 2.5Z" fill-rule="evenodd"/>
		<path fill="#F3F3F3" transform="matrix(2 0 0 -2 25 25)" d="M1.5 2.5L2.5 2.5L2.5 1.5L1.5 1.5L1.5 2.5Z" fill-rule="evenodd"/>
		<path fill="#F3F3F3" transform="matrix(2 0 0 -2 25 25)" d="M2.5 2.5L3.5 2.5L3.5 1.5L2.5 1.5L2.5 2.5Z" fill-rule="evenodd"/>
		<path fill="#F3F3F3" transform="matrix(2 0 0 -2 25 25)" d="M4.5 2.5L5.5 2.5L5.5 1.5L4.5 1.5L4.5 2.5Z" fill-rule="evenodd"/>
		<path fill="#F3F3F3" transform="matrix(2 0 0 -2 25 25)" d="M6.5 2.5L7.5 2.5L7.5 1.5L6.5 1.5L6.5 2.5Z" fill-rule="evenodd"/>
		<path fill="#F3F3F3" transform="matrix(2 0 0 -2 25 25)" d="M8.5 2.5L9.5 2.5L9.5 1.5L8.5 1.5L8.5 2.5Z" fill-rule="evenodd"/>
		<path fill="#F3F3F3" transform="matrix(2 0 0 -2 25 25)" d="M9.5 2.5L10.5 2.5L10.5 1.5L9.5 1.5L9.5 2.5Z" fill-rule="evenodd"/>
		<path fill="#F3F3F3" transform="matrix(2 0 0 -2 25 25)" d="M-12.5 1.5L-11.5 1.5L-11.5 0.5L-12.5 0.5L-12.5 1.5Z" fill-rule="evenodd"/>
		<path fill="#F3F3F3" transform="matrix(2 0 0 -2 25 25)" d="M-11.5 1.5L-10.5 1.5L-10.5 0.5L-11.5 0.5L-11.5 1.5Z" fill-rule="evenodd"/>
		<path fill="#F3F3F3" transform="matrix(2 0 0 -2 25 25)" d="M-9.5 1.5L-8.5 1.5L-8.5 0.5L-9.5 0.5L-9.5 1.5Z" fill-rule="evenodd"/>
		<path fill="#F3F3F3" transform="matrix(2 0 0 -2 25 25)" d="M-8.5 1.5L-7.5 1.5L-7.5 0.5L-8.5 0.5L-8.5 1.5Z" fill-rule="evenodd"/>
		<path fill="#F3F3F3" transform="matrix(2 0 0 -2 25 25)" d="M-5.5 1.5L-4.5 1.5L-4.5 0.5L-5.5 0.5L-5.5 1.5Z" fill-rule="evenodd"/>
		<path fill="#F3F3F3" transform="matrix(2 0 0 -2 25 25)" d="M-4.5 1.5L-3.5 1.5L-3.5 0.5L-4.5 0.5L-4.5 1.5Z" fill-rule="evenodd"/>
		<path fill="#F3F3F3" transform="matrix(2 0 0 -2 25 25)" d="M-2.5 1.5L-1.5 1.5L-1.5 0.5L-2.5 0.5L-2.5 1.5Z" fill-rule="evenodd"/>
		<path fill="#F3F3F3" transform="matrix(2 0 0 -2 25 25)" d="M-1.5 1.5L-0.5 1.5L-0.5 0.5L-1.5 0.5L-1.5 1.5Z" fill-rule="evenodd"/>
		<path fill="#F3F3F3" transform="matrix(2 0 0 -2 25 25)" d="M0.5 1.5L1.5 1.5L1.5 0.5L0.5 0.5L0.5 1.5Z" fill-rule="evenodd"/>
		<path fill="#F3F3F3" transform="matrix(2 0 0 -2 25 25)" d="M5.5 1.5L6.5 1.5L6.5 0.5L5.5 0.5L5.5 1.5Z" fill-rule="evenodd"/>
		<path fill="#F3F3F3" transform="matrix(2 0 0 -2 25 25)" d="M6.5 1.5L7.5 1.5L7.5 0.5L6.5 0.5L6.5 1.5Z" fill-rule="evenodd"/>
		<path fill="#F3F3F3" transform="matrix(2 0 0 -2 25 25)" d="M9.5 1.5L10.5 1.5L10.5 0.5L9.5 0.5L9.5 1.5Z" fill-rule="evenodd"/>
		<path fill="#F3F3F3" transform="matrix(2 0 0 -2 25 25)" d="M10.5 1.5L11.5 1.5L11.5 0.5L10.5 0.5L10.5 1.5Z" fill-rule="evenodd"/>
		<path fill="#F3F3F3" transform="matrix(2 0 0 -2 25 25)" d="M-12.5 0.5L-11.5 0.5L-11.5 -0.5L-12.5 -0.5L-12.5 0.5Z" fill-rule="evenodd"/>
		<path fill="#F3F3F3" transform="matrix(2 0 0 -2 25 25)" d="M-11.5 0.5L-10.5 0.5L-10.5 -0.5L-11.5 -0.5L-11.5 0.5Z" fill-rule="evenodd"/>
		<path fill="#F3F3F3" transform="matrix(2 0 0 -2 25 25)" d="M-10.5 0.5L-9.5 0.5L-9.5 -0.5L-10.5 -0.5L-10.5 0.5Z" fill-rule="evenodd"/>
		<path fill="#F3F3F3" transform="matrix(2 0 0 -2 25 25)" d="M-9.5 0.5L-8.5 0.5L-8.5 -0.5L-9.5 -0.5L-9.5 0.5Z" fill-rule="evenodd"/>
		<path fill="#F3F3F3" transform="matrix(2 0 0 -2 25 25)" d="M-8.5 0.5L-7.5 0.5L-7.5 -0.5L-8.5 -0.5L-8.5 0.5Z" fill-rule="evenodd"/>
		<path fill="#F3F3F3" transform="matrix(2 0 0 -2 25 25)" d="M-7.5 0.5L-6.5 0.5L-6.5 -0.5L-7.5 -0.5L-7.5 0.5Z" fill-rule="evenodd"/>
		<path fill="#F3F3F3" transform="matrix(2 0 0 -2 25 25)" d="M-6.5 0.5L-5.5 0.5L-5.5 -0.5L-6.5 -0.5L-6.5 0.5Z" fill-rule="evenodd"/>
		<path fill="#F3F3F3" transform="matrix(2 0 0 -2 25 25)" d="M-2.5 0.5L-1.5 0.5L-1.5 -0.5L-2.5 -0.5L-2.5 0.5Z" fill-rule="evenodd"/>
		<path fill="#F3F3F3" transform="matrix(2 0 0 -2 25 25)" d="M-0.5 0.5L0.5 0.5L0.5 -0.5L-0.5 -0.5L-0.5 0.5Z" fill-rule="evenodd"/>
		<path fill="#F3F3F3" transform="matrix(2 0 0 -2 25 25)" d="M0.5 0.5L1.5 0.5L1.5 -0.5L0.5 -0.5L0.5 0.5Z" fill-rule="evenodd"/>
		<path fill="#F3F3F3" transform="matrix(2 0 0 -2 25 25)" d="M2.5 0.5L3.5 0.5L3.5 -0.5L2.5 -0.5L2.5 0.5Z" fill-rule="evenodd"/>
		<path fill="#F3F3F3" transform="matrix(2 0 0 -2 25 25)" d="M4.5 0.5L5.5 0.5L5.5 -0.5L4.5 -0.5L4.5 0.5Z" fill-rule="evenodd"/>
		<path fill="#F3F3F3" transform="matrix(2 0 0 -2 25 25)" d="M5.5 0.5L6.5 0.5L6.5 -0.5L5.5 -0.5L5.5 0.5Z" fill-rule="evenodd"/>
		<path fill="#F3F3F3" transform="matrix(2 0 0 -2 25 25)" d="M8.5 0.5L9.5 0.5L9.5 -0.5L8.5 -0.5L8.5 0.5Z" fill-rule="evenodd"/>
		<path fill="#F3F3F3" transform="matrix(2 0 0 -2 25 25)" d="M9.5 0.5L10.5 0.5L10.5 -0.5L9.5 -0.5L9.5 0.5Z" fill-rule="evenodd"/>
		<path fill="#F3F3F3" transform="matrix(2 0 0 -2 25 25)" d="M10.5 0.5L11.5 0.5L11.5 -0.5L10.5 -0.5L10.5 0.5Z" fill-rule="evenodd"/>
		<path fill="#F3F3F3" transform="matrix(2 0 0 -2 25 25)" d="M11.5 0.5L12.5 0.5L12.5 -0.5L11.5 -0.5L11.5 0.5Z" fill-rule="evenodd"/>
		<path fill="#F3F3F3" transform="matrix(2 0 0 -2 25 25)" d="M-12.5 -0.5L-11.5 -0.5L-11.5 -1.5L-12.5 -1.5L-12.5 -0.5Z" fill-rule="evenodd"/>
		<path fill="#F3F3F3" transform="matrix(2 0 0 -2 25 25)" d="M-10.5 -0.5L-9.5 -0.5L-9.5 -1.5L-10.5 -1.5L-10.5 -0.5Z" fill-rule="evenodd"/>
		<path fill="#F3F3F3" transform="matrix(2 0 0 -2 25 25)" d="M-9.5 -0.5L-8.5 -0.5L-8.5 -1.5L-9.5 -1.5L-9.5 -0.5Z" fill-rule="evenodd"/>
		<path fill="#F3F3F3" transform="matrix(2 0 0 -2 25 25)" d="M-7.5 -0.5L-6.5 -0.5L-6.5 -1.5L-7.5 -1.5L-7.5 -0.5Z" fill-rule="evenodd"/>
		<path fill="#F3F3F3" transform="matrix(2 0 0 -2 25 25)" d="M0.5 -0.5L1.5 -0.5L1.5 -1.5L0.5 -1.5L0.5 -0.5Z" fill-rule="evenodd"/>
		<path fill="#F3F3F3" transform="matrix(2 0 0 -2 25 25)" d="M1.5 -0.5L2.5 -0.5L2.5 -1.5L1.5 -1.5L1.5 -0.5Z" fill-rule="evenodd"/>
		<path fill="#F3F3F3" transform="matrix(2 0 0 -2 25 25)" d="M2.5 -0.5L3.5 -0.5L3.5 -1.5L2.5 -1.5L2.5 -0.5Z" fill-rule="evenodd"/>
		<path fill="#F3F3F3" transform="matrix(2 0 0 -2 25 25)" d="M3.5 -0.5L4.5 -0.5L4.5 -1.5L3.5 -1.5L3.5 -0.5Z" fill-rule="evenodd"/>
		<path fill="#F3F3F3" transform="matrix(2 0 0 -2 25 25)" d="M7.5 -0.5L8.5 -0.5L8.5 -1.5L7.5 -1.5L7.5 -0.5Z" fill-rule="evenodd"/>
		<path fill="#F3F3F3" transform="matrix(2 0 0 -2 25 25)" d="M10.5 -0.5L11.5 -0.5L11.5 -1.5L10.5 -1.5L10.5 -0.5Z" fill-rule="evenodd"/>
		<path fill="#F3F3F3" transform="matrix(2 0 0 -2 25 25)" d="M-7.5 -1.5L-6.5 -1.5L-6.5 -2.5L-7.5 -2.5L-7.5 -1.5Z" fill-rule="evenodd"/>
		<path fill="#F3F3F3" transform="matrix(2 0 0 -2 25 25)" d="M-6.5 -1.5L-5.5 -1.5L-5.5 -2.5L-6.5 -2.5L-6.5 -1.5Z" fill-rule="evenodd"/>
		<path fill="#F3F3F3" transform="matrix(2 0 0 -2 25 25)" d="M-5.5 -1.5L-4.5 -1.5L-4.5 -2.5L-5.5 -2.5L-5.5 -1.5Z" fill-rule="evenodd"/>
		<path fill="#F3F3F3" transform="matrix(2 0 0 -2 25 25)" d="M-4.5 -1.5L-3.5 -1.5L-3.5 -2.5L-4.5 -2.5L-4.5 -1.5Z" fill-rule="evenodd"/>
		<path fill="#F3F3F3" transform="matrix(2 0 0 -2 25 25)" d="M-3.5 -1.5L-2.5 -1.5L-2.5 -2.5L-3.5 -2.5L-3.5 -1.5Z" fill-rule="evenodd"/>
		<path fill="#F3F3F3" transform="matrix(2 0 0 -2 25 25)" d="M2.5 -1.5L3.5 -1.5L3.5 -2.5L2.5 -2.5L2.5 -1.5Z" fill-rule="evenodd"/>
		<path fill="#F3F3F3" transform="matrix(2 0 0 -2 25 25)" d="M6.5 -1.5L7.5 -1.5L7.5 -2.5L6.5 -2.5L6.5 -1.5Z" fill-rule="evenodd"/>
		<path fill="#F3F3F3" transform="matrix(2 0 0 -2 25 25)" d="M7.5 -1.5L8.5 -1.5L8.5 -2.5L7.5 -2.5L7.5 -1.5Z" fill-rule="evenodd"/>
		<path fill="#F3F3F3" transform="matrix(2 0 0 -2 25 25)" d="M8.5 -1.5L9.5 -1.5L9.5 -2.5L8.5 -2.5L8.5 -1.5Z" fill-rule="evenodd"/>
		<path fill="#F3F3F3" transform="matrix(2 0 0 -2 25 25)" d="M9.5 -1.5L10.5 -1.5L10.5 -2.5L9.5 -2.5L9.5 -1.5Z" fill-rule="evenodd"/>
		<path fill="#F3F3F3" transform="matrix(2 0 0 -2 25 25)" d="M-10.5 -2.5L-9.5 -2.5L-9.5 -3.5L-10.5 -3.5L-10.5 -2.5Z" fill-rule="evenodd"/>
		<path fill="#F3F3F3" transform="matrix(2 0 0 -2 25 25)" d="M-9.5 -2.5L-8.5 -2.5L-8.5 -3.5L-9.5 -3.5L-9.5 -2.5Z" fill-rule="evenodd"/>
		<path fill="#F3F3F3" transform="matrix(2 0 0 -2 25 25)" d="M-8.5 -2.5L-7.5 -2.5L-7.5 -3.5L-8.5 -3.5L-8.5 -2.5Z" fill-rule="evenodd"/>
		<path fill="#F3F3F3" transform="matrix(2 0 0 -2 25 25)" d="M-3.5 -2.5L-2.5 -2.5L-2.5 -3.5L-3.5 -3.5L-3.5 -2.5Z" fill-rule="evenodd"/>
		<path fill="#F3F3F3" transform="matrix(2 0 0 -2 25 25)" d="M-2.5 -2.5L-1.5 -2.5L-1.5 -3.5L-2.5 -3.5L-2.5 -2.5Z" fill-rule="evenodd"/>
		<path fill="#F3F3F3" transform="matrix(2 0 0 -2 25 25)" d="M-0.5 -2.5L0.5 -2.5L0.5 -3.5L-0.5 -3.5L-0.5 -2.5Z" fill-rule="evenodd"/>
		<path fill="#F3F3F3" transform="matrix(2 0 0 -2 25 25)" d="M1.5 -2.5L2.5 -2.5L2.5 -3.5L1.5 -3.5L1.5 -2.5Z" fill-rule="evenodd"/>
		<path fill="#F3F3F3" transform="matrix(2 0 0 -2 25 25)" d="M3.5 -2.5L4.5 -2.5L4.5 -3.5L3.5 -3.5L3.5 -2.5Z" fill-rule="evenodd"/>
		<path fill="#F3F3F3" transform="matrix(2 0 0 -2 25 25)" d="M6.5 -2.5L7.5 -2.5L7.5 -3.5L6.5 -3.5L6.5 -2.5Z" fill-rule="evenodd"/>
		<path fill="#F3F3F3" transform="matrix(2 0 0 -2 25 25)" d="M7.5 -2.5L8.5 -2.5L8.5 -3.5L7.5 -3.5L7.5 -2.5Z" fill-rule="evenodd"/>
		<path fill="#F3F3F3" transform="matrix(2 0 0 -2 25 25)" d="M9.5 -2.5L10.5 -2.5L10.5 -3.5L9.5 -3.5L9.5 -2.5Z" fill-rule="evenodd"/>
		<path fill="#F3F3F3" transform="matrix(2 0 0 -2 25 25)" d="M10.5 -2.5L11.5 -2.5L11.5 -3.5L10.5 -3.5L10.5 -2.5Z" fill-rule="evenodd"/>
		<path fill="#F3F3F3" transform="matrix(2 0 0 -2 25 25)" d="M-12.5 -3.5L-11.5 -3.5L-11.5 -4.5L-12.5 -4.5L-12.5 -3.5Z" fill-rule="evenodd"/>
		<path fill="#F3F3F3" transform="matrix(2 0 0 -2 25 25)" d="M-11.5 -3.5L-10.5 -3.5L-10.5 -4.5L-11.5 -4.5L-11.5 -3.5Z" fill-rule="evenodd"/>
		<path fill="#F3F3F3" transform="matrix(2 0 0 -2 25 25)" d="M-6.5 -3.5L-5.5 -3.5L-5.5 -4.5L-6.5 -4.5L-6.5 -3.5Z" fill-rule="evenodd"/>
		<path fill="#F3F3F3" transform="matrix(2 0 0 -2 25 25)" d="M-5.5 -3.5L-4.5 -3.5L-4.5 -4.5L-5.5 -4.5L-5.5 -3.5Z" fill-rule="evenodd"/>
		<path fill="#F3F3F3" transform="matrix(2 0 0 -2 25 25)" d="M-4.5 -3.5L-3.5 -3.5L-3.5 -4.5L-4.5 -4.5L-4.5 -3.5Z" fill-rule="evenodd"/>
		<path fill="#F3F3F3" transform="matrix(2 0 0 -2 25 25)" d="M-1.5 -3.5L-0.5 -3.5L-0.5 -4.5L-1.5 -4.5L-1.5 -3.5Z" fill-rule="evenodd"/>
		<path fill="#F3F3F3" transform="matrix(2 0 0 -2 25 25)" d="M0.5 -3.5L1.5 -3.5L1.5 -4.5L0.5 -4.5L0.5 -3.5Z" fill-rule="evenodd"/>
		<path fill="#F3F3F3" transform="matrix(2 0 0 -2 25 25)" d="M1.5 -3.5L2.5 -3.5L2.5 -4.5L1.5 -4.5L1.5 -3.5Z" fill-rule="evenodd"/>
		<path fill="#F3F3F3" transform="matrix(2 0 0 -2 25 25)" d="M3.5 -3.5L4.5 -3.5L4.5 -4.5L3.5 -4.5L3.5 -3.5Z" fill-rule="evenodd"/>
		<path fill="#F3F3F3" transform="matrix(2 0 0 -2 25 25)" d="M4.5 -3.5L5.5 -3.5L5.5 -4.5L4.5 -4.5L4.5 -3.5Z" fill-rule="evenodd"/>
		<path fill="#F3F3F3" transform="matrix(2 0 0 -2 25 25)" d="M5.5 -3.5L6.5 -3.5L6.5 -4.5L5.5 -4.5L5.5 -3.5Z" fill-rule="evenodd"/>
		<path fill="#F3F3F3" transform="matrix(2 0 0 -2 25 25)" d="M6.5 -3.5L7.5 -3.5L7.5 -4.5L6.5 -4.5L6.5 -3.5Z" fill-rule="evenodd"/>
		<path fill="#F3F3F3" transform="matrix(2 0 0 -2 25 25)" d="M7.5 -3.5L8.5 -3.5L8.5 -4.5L7.5 -4.5L7.5 -3.5Z" fill-rule="evenodd"/>
		<path fill="#F3F3F3" transform="matrix(2 0 0 -2 25 25)" d="M8.5 -3.5L9.5 -3.5L9.5 -4.5L8.5 -4.5L8.5 -3.5Z" fill-rule="evenodd"/>
		<path fill="#F3F3F3" transform="matrix(2 0 0 -2 25 25)" d="M9.5 -3.5L10.5 -3.5L10.5 -4.5L9.5 -4.5L9.5 -3.5Z" fill-rule="evenodd"/>
		<path fill="#F3F3F3" transform="matrix(2 0 0 -2 25 25)" d="M-4.5 -4.5L-3.5 -4.5L-3.5 -5.5L-4.5 -5.5L-4.5 -4.5Z" fill-rule="evenodd"/>
		<path fill="#F3F3F3" transform="matrix(2 0 0 -2 25 25)" d="M-3.5 -4.5L-2.5 -4.5L-2.5 -5.5L-3.5 -5.5L-3.5 -4.5Z" fill-rule="evenodd"/>
		<path fill="#F3F3F3" transform="matrix(2 0 0 -2 25 25)" d="M-0.5 -4.5L0.5 -4.5L0.5 -5.5L-0.5 -5.5L-0.5 -4.5Z" fill-rule="evenodd"/>
		<path fill="#F3F3F3" transform="matrix(2 0 0 -2 25 25)" d="M2.5 -4.5L3.5 -4.5L3.5 -5.5L2.5 -5.5L2.5 -4.5Z" fill-rule="evenodd"/>
		<path fill="#F3F3F3" transform="matrix(2 0 0 -2 25 25)" d="M3.5 -4.5L4.5 -4.5L4.5 -5.5L3.5 -5.5L3.5 -4.5Z" fill-rule="evenodd"/>
		<path fill="#F3F3F3" transform="matrix(2 0 0 -2 25 25)" d="M7.5 -4.5L8.5 -4.5L8.5 -5.5L7.5 -5.5L7.5 -4.5Z" fill-rule="evenodd"/>
		<path fill="#F3F3F3" transform="matrix(2 0 0 -2 25 25)" d="M-3.5 -5.5L-2.5 -5.5L-2.5 -6.5L-3.5 -6.5L-3.5 -5.5Z" fill-rule="evenodd"/>
		<path fill="#F3F3F3" transform="matrix(2 0 0 -2 25 25)" d="M-1.5 -5.5L-0.5 -5.5L-0.5 -6.5L-1.5 -6.5L-1.5 -5.5Z" fill-rule="evenodd"/>
		<path fill="#F3F3F3" transform="matrix(2 0 0 -2 25 25)" d="M-0.5 -5.5L0.5 -5.5L0.5 -6.5L-0.5 -6.5L-0.5 -5.5Z" fill-rule="evenodd"/>
		<path fill="#F3F3F3" transform="matrix(2 0 0 -2 25 25)" d="M0.5 -5.5L1.5 -5.5L1.5 -6.5L0.5 -6.5L0.5 -5.5Z" fill-rule="evenodd"/>
		<path fill="#F3F3F3" transform="matrix(2 0 0 -2 25 25)" d="M1.5 -5.5L2.5 -5.5L2.5 -6.5L1.5 -6.5L1.5 -5.5Z" fill-rule="evenodd"/>
		<path fill="#F3F3F3" transform="matrix(2 0 0 -2 25 25)" d="M3.5 -5.5L4.5 -5.5L4.5 -6.5L3.5 -6.5L3.5 -5.5Z" fill-rule="evenodd"/>
		<path fill="#F3F3F3" transform="matrix(2 0 0 -2 25 25)" d="M5.5 -5.5L6.5 -5.5L6.5 -6.5L5.5 -6.5L5.5 -5.5Z" fill-rule="evenodd"/>
		<path fill="#F3F3F3" transform="matrix(2 0 0 -2 25 25)" d="M7.5 -5.5L8.5 -5.5L8.5 -6.5L7.5 -6.5L7.5 -5.5Z" fill-rule="evenodd"/>
		<path fill="#F3F3F3" transform="matrix(2 0 0 -2 25 25)" d="M-4.5 -6.5L-3.5 -6.5L-3.5 -7.5L-4.5 -7.5L-4.5 -6.5Z" fill-rule="evenodd"/>
		<path fill="#F3F3F3" transform="matrix(2 0 0 -2 25 25)" d="M-1.5 -6.5L-0.5 -6.5L-0.5 -7.5L-1.5 -7.5L-1.5 -6.5Z" fill-rule="evenodd"/>
		<path fill="#F3F3F3" transform="matrix(2 0 0 -2 25 25)" d="M0.5 -6.5L1.5 -6.5L1.5 -7.5L0.5 -7.5L0.5 -6.5Z" fill-rule="evenodd"/>
		<path fill="#F3F3F3" transform="matrix(2 0 0 -2 25 25)" d="M2.5 -6.5L3.5 -6.5L3.5 -7.5L2.5 -7.5L2.5 -6.5Z" fill-rule="evenodd"/>
		<path fill="#F3F3F3" transform="matrix(2 0 0 -2 25 25)" d="M3.5 -6.5L4.5 -6.5L4.5 -7.5L3.5 -7.5L3.5 -6.5Z" fill-rule="evenodd"/>
		<path fill="#F3F3F3" transform="matrix(2 0 0 -2 25 25)" d="M7.5 -6.5L8.5 -6.5L8.5 -7.5L7.5 -7.5L7.5 -6.5Z" fill-rule="evenodd"/>
		<path fill="#F3F3F3" transform="matrix(2 0 0 -2 25 25)" d="M8.5 -6.5L9.5 -6.5L9.5 -7.5L8.5 -7.5L8.5 -6.5Z" fill-rule="evenodd"/>
		<path fill="#F3F3F3" transform="matrix(2 0 0 -2 25 25)" d="M9.5 -6.5L10.5 -6.5L10.5 -7.5L9.5 -7.5L9.5 -6.5Z" fill-rule="evenodd"/>
		<path fill="#F3F3F3" transform="matrix(2 0 0 -2 25 25)" d="M11.5 -6.5L12.5 -6.5L12.5 -7.5L11.5 -7.5L11.5 -6.5Z" fill-rule="evenodd"/>
		<path fill="#F3F3F3" transform="matrix(2 0 0 -2 25 25)" d="M-4.5 -7.5L-3.5 -7.5L-3.5 -8.5L-4.5 -8.5L-4.5 -7.5Z" fill-rule="evenodd"/>
		<path fill="#F3F3F3" transform="matrix(2 0 0 -2 25 25)" d="M-2.5 -7.5L-1.5 -7.5L-1.5 -8.5L-2.5 -8.5L-2.5 -7.5Z" fill-rule="evenodd"/>
		<path fill="#F3F3F3" transform="matrix(2 0 0 -2 25 25)" d="M-0.5 -7.5L0.5 -7.5L0.5 -8.5L-0.5 -8.5L-0.5 -7.5Z" fill-rule="evenodd"/>
		<path fill="#F3F3F3" transform="matrix(2 0 0 -2 25 25)" d="M0.5 -7.5L1.5 -7.5L1.5 -8.5L0.5 -8.5L0.5 -7.5Z" fill-rule="evenodd"/>
		<path fill="#F3F3F3" transform="matrix(2 0 0 -2 25 25)" d="M3.5 -7.5L4.5 -7.5L4.5 -8.5L3.5 -8.5L3.5 -7.5Z" fill-rule="evenodd"/>
		<path fill="#F3F3F3" transform="matrix(2 0 0 -2 25 25)" d="M4.5 -7.5L5.5 -7.5L5.5 -8.5L4.5 -8.5L4.5 -7.5Z" fill-rule="evenodd"/>
		<path fill="#F3F3F3" transform="matrix(2 0 0 -2 25 25)" d="M5.5 -7.5L6.5 -7.5L6.5 -8.5L5.5 -8.5L5.5 -7.5Z" fill-rule="evenodd"/>
		<path fill="#F3F3F3" transform="matrix(2 0 0 -2 25 25)" d="M6.5 -7.5L7.5 -7.5L7.5 -8.5L6.5 -8.5L6.5 -7.5Z" fill-rule="evenodd"/>
		<path fill="#F3F3F3" transform="matrix(2 0 0 -2 25 25)" d="M7.5 -7.5L8.5 -7.5L8.5 -8.5L7.5 -8.5L7.5 -7.5Z" fill-rule="evenodd"/>
		<path fill="#F3F3F3" transform="matrix(2 0 0 -2 25 25)" d="M8.5 -7.5L9.5 -7.5L9.5 -8.5L8.5 -8.5L8.5 -7.5Z" fill-rule="evenodd"/>
		<path fill="#F3F3F3" transform="matrix(2 0 0 -2 25 25)" d="M9.5 -7.5L10.5 -7.5L10.5 -8.5L9.5 -8.5L9.5 -7.5Z" fill-rule="evenodd"/>
		<path fill="#F3F3F3" transform="matrix(2 0 0 -2 25 25)" d="M11.5 -7.5L12.5 -7.5L12.5 -8.5L11.5 -8.5L11.5 -7.5Z" fill-rule="evenodd"/>
		<path fill="#F3F3F3" transform="matrix(2 0 0 -2 25 25)" d="M0.5 -8.5L1.5 -8.5L1.5 -9.5L0.5 -9.5L0.5 -8.5Z" fill-rule="evenodd"/>
		<path fill="#F3F3F3" transform="matrix(2 0 0 -2 25 25)" d="M1.5 -8.5L2.5 -8.5L2.5 -9.5L1.5 -9.5L1.5 -8.5Z" fill-rule="evenodd"/>
		<path fill="#F3F3F3" transform="matrix(2 0 0 -2 25 25)" d="M4.5 -8.5L5.5 -8.5L5.5 -9.5L4.5 -9.5L4.5 -8.5Z" fill-rule="evenodd"/>
		<path fill="#F3F3F3" transform="matrix(2 0 0 -2 25 25)" d="M5.5 -8.5L6.5 -8.5L6.5 -9.5L5.5 -9.5L5.5 -8.5Z" fill-rule="evenodd"/>
		<path fill="#F3F3F3" transform="matrix(2 0 0 -2 25 25)" d="M6.5 -8.5L7.5 -8.5L7.5 -9.5L6.5 -9.5L6.5 -8.5Z" fill-rule="evenodd"/>
		<path fill="#F3F3F3" transform="matrix(2 0 0 -2 25 25)" d="M9.5 -8.5L10.5 -8.5L10.5 -9.5L9.5 -9.5L9.5 -8.5Z" fill-rule="evenodd"/>
		<path fill="#F3F3F3" transform="matrix(2 0 0 -2 25 25)" d="M10.5 -8.5L11.5 -8.5L11.5 -9.5L10.5 -9.5L10.5 -8.5Z" fill-rule="evenodd"/>
		<path fill="#F3F3F3" transform="matrix(2 0 0 -2 25 25)" d="M11.5 -8.5L12.5 -8.5L12.5 -9.5L11.5 -9.5L11.5 -8.5Z" fill-rule="evenodd"/>
		<path fill="#F3F3F3" transform="matrix(2 0 0 -2 25 25)" d="M2.5 -9.5L3.5 -9.5L3.5 -10.5L2.5 -10.5L2.5 -9.5Z" fill-rule="evenodd"/>
		<path fill="#F3F3F3" transform="matrix(2 0 0 -2 25 25)" d="M4.5 -9.5L5.5 -9.5L5.5 -10.5L4.5 -10.5L4.5 -9.5Z" fill-rule="evenodd"/>
		<path fill="#F3F3F3" transform="matrix(2 0 0 -2 25 25)" d="M5.5 -9.5L6.5 -9.5L6.5 -10.5L5.5 -10.5L5.5 -9.5Z" fill-rule="evenodd"/>
		<path fill="#F3F3F3" transform="matrix(2 0 0 -2 25 25)" d="M8.5 -9.5L9.5 -9.5L9.5 -10.5L8.5 -10.5L8.5 -9.5Z" fill-rule="evenodd"/>
		<path fill="#F3F3F3" transform="matrix(2 0 0 -2 25 25)" d="M10.5 -9.5L11.5 -9.5L11.5 -10.5L10.5 -10.5L10.5 -9.5Z" fill-rule="evenodd"/>
		<path fill="#F3F3F3" transform="matrix(2 0 0 -2 25 25)" d="M-4.5 -10.5L-3.5 -10.5L-3.5 -11.5L-4.5 -11.5L-4.5 -10.5Z" fill-rule="evenodd"/>
		<path fill="#F3F3F3" transform="matrix(2 0 0 -2 25 25)" d="M-2.5 -10.5L-1.5 -10.5L-1.5 -11.5L-2.5 -11.5L-2.5 -10.5Z" fill-rule="evenodd"/>
		<path fill="#F3F3F3" transform="matrix(2 0 0 -2 25 25)" d="M-0.5 -10.5L0.5 -10.5L0.5 -11.5L-0.5 -11.5L-0.5 -10.5Z" fill-rule="evenodd"/>
		<path fill="#F3F3F3" transform="matrix(2 0 0 -2 25 25)" d="M1.5 -10.5L2.5 -10.5L2.5 -11.5L1.5 -11.5L1.5 -10.5Z" fill-rule="evenodd"/>
		<path fill="#F3F3F3" transform="matrix(2 0 0 -2 25 25)" d="M6.5 -10.5L7.5 -10.5L7.5 -11.5L6.5 -11.5L6.5 -10.5Z" fill-rule="evenodd"/>
		<path fill="#F3F3F3" transform="matrix(2 0 0 -2 25 25)" d="M7.5 -10.5L8.5 -10.5L8.5 -11.5L7.5 -11.5L7.5 -10.5Z" fill-rule="evenodd"/>
		<path fill="#F3F3F3" transform="matrix(2 0 0 -2 25 25)" d="M8.5 -10.5L9.5 -10.5L9.5 -11.5L8.5 -11.5L8.5 -10.5Z" fill-rule="evenodd"/>
		<path fill="#F3F3F3" transform="matrix(2 0 0 -2 25 25)" d="M9.5 -10.5L10.5 -10.5L10.5 -11.5L9.5 -11.5L9.5 -10.5Z" fill-rule="evenodd"/>
		<path fill="#F3F3F3" transform="matrix(2 0 0 -2 25 25)" d="M10.5 -10.5L11.5 -10.5L11.5 -11.5L10.5 -11.5L10.5 -10.5Z" fill-rule="evenodd"/>
		<path fill="#F3F3F3" transform="matrix(2 0 0 -2 25 25)" d="M-4.5 -11.5L-3.5 -11.5L-3.5 -12.5L-4.5 -12.5L-4.5 -11.5Z" fill-rule="evenodd"/>
		<path fill="#F3F3F3" transform="matrix(2 0 0 -2 25 25)" d="M-3.5 -11.5L-2.5 -11.5L-2.5 -12.5L-3.5 -12.5L-3.5 -11.5Z" fill-rule="evenodd"/>
		<path fill="#F3F3F3" transform="matrix(2 0 0 -2 25 25)" d="M-1.5 -11.5L-0.5 -11.5L-0.5 -12.5L-1.5 -12.5L-1.5 -11.5Z" fill-rule="evenodd"/>
		<path fill="#F3F3F3" transform="matrix(2 0 0 -2 25 25)" d="M0.5 -11.5L1.5 -11.5L1.5 -12.5L0.5 -12.5L0.5 -11.5Z" fill-rule="evenodd"/>
		<path fill="#F3F3F3" transform="matrix(2 0 0 -2 25 25)" d="M1.5 -11.5L2.5 -11.5L2.5 -12.5L1.5 -12.5L1.5 -11.5Z" fill-rule="evenodd"/>
		<path fill="#F3F3F3" transform="matrix(2 0 0 -2 25 25)" d="M5.5 -11.5L6.5 -11.5L6.5 -12.5L5.5 -12.5L5.5 -11.5Z" fill-rule="evenodd"/>
		<path fill="#F3F3F3" transform="matrix(2 0 0 -2 25 25)" d="M9.5 -11.5L10.5 -11.5L10.5 -12.5L9.5 -12.5L9.5 -11.5Z" fill-rule="evenodd"/>
		<path fill="#F3F3F3" transform="matrix(2 0 0 -2 25 25)" d="M10.5 -11.5L11.5 -11.5L11.5 -12.5L10.5 -12.5L10.5 -11.5Z" fill-rule="evenodd"/>
		<path fill="#F3F3F3" transform="matrix(2 0 0 -2 25 25)" d="M11.5 -11.5L12.5 -11.5L12.5 -12.5L11.5 -12.5L11.5 -11.5Z" fill-rule="evenodd"/>
	</g>
</svg>
